<?xml version="1.0" encoding="UTF-8" standalone="no"?><!DOCTYPE svg PUBLIC "-//W3C//DTD SVG 1.1//EN" "http://www.w3.org/Graphics/SVG/1.1/DTD/svg11.dtd"><svg width="100%" height="100%" viewBox="0 0 3033 1111" version="1.1" xmlns="http://www.w3.org/2000/svg" xmlns:xlink="http://www.w3.org/1999/xlink" xml:space="preserve" xmlns:serif="http://www.serif.com/" style="fill-rule:evenodd;clip-rule:evenodd;stroke-linejoin:round;stroke-miterlimit:2;"><rect id="Artboard4" x="0" y="0" width="3032.224" height="1110.291"/><g><path d="M881.182,301.92c30.283,-0 59.326,12.03 80.739,33.443c21.413,21.413 33.443,50.456 33.443,80.739l0,294.562c-0,30.283 -12.03,59.326 -33.443,80.739c-21.413,21.413 -50.456,33.443 -80.739,33.443l-481.816,0c-30.283,0 -59.326,-12.03 -80.739,-33.443c-21.413,-21.413 -33.443,-50.456 -33.443,-80.739l-0,-294.562c0,-30.283 12.03,-59.326 33.443,-80.739c21.413,-21.413 50.456,-33.443 80.739,-33.443l481.816,0Z" style="fill:#00ff03;"/><path d="M496.451,488.301c63.061,0 114.182,51.121 114.182,114.182l-0,53.027c0,63.061 -51.121,114.182 -114.182,114.182l-55.546,0c-63.061,-0 -114.182,-51.121 -114.182,-114.182l0,-53.027c-0,-63.061 51.121,-114.182 114.182,-114.182l55.546,-0Z"/><path d="M820.693,488.301c63.061,0 114.182,51.121 114.182,114.182l-0,53.027c0,63.061 -51.121,114.182 -114.182,114.182l-55.546,0c-63.061,-0 -114.182,-51.121 -114.182,-114.182l0,-53.027c-0,-63.061 51.121,-114.182 114.182,-114.182l55.546,-0Z"/><g transform="matrix(41.666667,0,0,41.666667,601.396471,417.38434)"></g><text x="350.583px" y="417.384px" style="font-family:'ArialMT', 'Arial', sans-serif;font-size:41.667px;">T<tspan x="372.942px 400.733px 427.772px 439.348px " y="417.384px 417.384px 417.384px 417.384px ">AP O</tspan>N RED</text><g transform="matrix(41.666667,0,0,41.666667,492.940628,645.108669)"></g><text x="413.191px" y="645.109px" style="font-family:'Nohemi-Regular', 'Nohemi';font-size:41.667px;fill:#fff;">RED</text><g transform="matrix(41.666667,0,0,41.666667,869.784331,645.108669)"></g><text x="734.149px" y="645.109px" style="font-family:'Nohemi-Regular', 'Nohemi';font-size:41.667px;fill:#fff;">GREEN</text></g><g><path d="M1758.413,301.92c30.283,-0 59.326,12.03 80.739,33.443c21.413,21.413 33.443,50.456 33.443,80.739l0,294.562c-0,30.283 -12.03,59.326 -33.443,80.739c-21.413,21.413 -50.456,33.443 -80.739,33.443l-481.816,0c-30.283,0 -59.326,-12.03 -80.739,-33.443c-21.413,-21.413 -33.443,-50.456 -33.443,-80.739l-0,-294.562c0,-30.283 12.03,-59.326 33.443,-80.739c21.413,-21.413 50.456,-33.443 80.739,-33.443l481.816,0Z" style="fill:#00f;"/><path d="M1303.284,488.301c24.119,-0 47.251,9.581 64.306,26.636c17.055,17.055 26.636,40.186 26.636,64.306l0,99.507c0,24.119 -9.581,47.251 -26.636,64.306c-17.055,17.055 -40.186,26.636 -64.306,26.636l-0.001,0c-24.119,0 -47.251,-9.581 -64.306,-26.636c-17.055,-17.055 -26.636,-40.186 -26.636,-64.306l0,-99.507c-0,-24.119 9.581,-47.251 26.636,-64.306c17.055,-17.055 40.186,-26.636 64.306,-26.636l0.001,0Z"/><path d="M1517.506,488.301c24.119,-0 47.251,9.581 64.306,26.636c17.055,17.055 26.636,40.186 26.636,64.306l0,99.507c0,24.119 -9.581,47.251 -26.636,64.306c-17.055,17.055 -40.186,26.636 -64.306,26.636l-0.001,0c-24.119,0 -47.251,-9.581 -64.306,-26.636c-17.055,-17.055 -26.636,-40.186 -26.636,-64.306l0,-99.507c-0,-24.119 9.581,-47.251 26.636,-64.306c17.055,-17.055 40.186,-26.636 64.306,-26.636l0.001,0Z"/><path d="M1731.728,488.301c24.119,-0 47.251,9.581 64.306,26.636c17.055,17.055 26.636,40.186 26.636,64.306l0,99.507c0,24.119 -9.581,47.251 -26.636,64.306c-17.055,17.055 -40.186,26.636 -64.306,26.636l-0.001,0c-24.119,0 -47.251,-9.581 -64.306,-26.636c-17.055,-17.055 -26.636,-40.186 -26.636,-64.306l0,-99.507c-0,-24.119 9.581,-47.251 26.636,-64.306c17.055,-17.055 40.186,-26.636 64.306,-26.636l0.001,0Z"/><g transform="matrix(1,0,0,1,-1351.939529,-702.996583)"><text x="2585.285px" y="1100.727px" style="font-family:'ArialMT', 'Arial', sans-serif;font-size:41.667px;fill:#fff;">Pokud je čtverec</text><text x="2585.285px" y="1148.64px" style="font-family:'ArialMT', 'Arial', sans-serif;font-size:41.667px;fill:#fff;">modrý klikni na <tspan x="2872.435px 2900.227px " y="1148.64px 1148.64px ">A.</tspan>jinak</text></g><g transform="matrix(41.666667,0,0,41.666667,1311.931822,644.516943)"></g><text x="1282.578px" y="644.517px" style="font-family:'Nohemi-Regular', 'Nohemi';font-size:41.667px;fill:#fff;">A</text><g transform="matrix(41.666667,0,0,41.666667,1528.327143,644.516943)"></g><text x="1500.358px" y="644.517px" style="font-family:'Nohemi-Regular', 'Nohemi';font-size:41.667px;fill:#fff;">B</text><g transform="matrix(41.666667,0,0,41.666667,1747.118298,643.891943)"></g><text x="1716.545px" y="643.892px" style="font-family:'Nohemi-Regular', 'Nohemi';font-size:41.667px;fill:#fff;">C</text></g><g><g><path d="M2689.444,301.92c30.283,-0 59.326,12.03 80.739,33.443c21.413,21.413 33.443,50.456 33.443,80.739l0,294.562c-0,30.283 -12.03,59.326 -33.443,80.739c-21.413,21.413 -50.456,33.443 -80.739,33.443l-481.816,0c-30.283,0 -59.326,-12.03 -80.739,-33.443c-21.413,-21.413 -33.443,-50.456 -33.443,-80.739l-0,-294.562c0,-30.283 12.03,-59.326 33.443,-80.739c21.413,-21.413 50.456,-33.443 80.739,-33.443l481.816,0Z" style="fill:#fff;"/><path d="M2661.942,563.383c49.038,-0 88.792,39.754 88.792,88.792l0,0.002c-0,49.038 -39.754,88.792 -88.792,88.792l-426.811,0c-49.038,0 -88.792,-39.754 -88.792,-88.792l-0,-0.002c0,-49.038 39.754,-88.792 88.792,-88.792l426.811,0Z"/><g transform="matrix(41.666667,0,0,41.666667,2257.346363,665.110693)"></g><text x="2234.263px" y="665.111px" style="font-family:'Nohemi-Regular', 'Nohemi';font-size:41.667px;fill:#fff;">=</text><g transform="matrix(41.666667,0,0,41.666667,2417.184054,397.730762)"></g><text x="2164.376px" y="397.731px" style="font-family:'ArialMT', 'Arial', sans-serif;font-size:41.667px;">COUNT<tspan x="2311.756px 2323.332px " y="397.731px 397.731px "> 5</tspan>+17</text></g></g><g transform="matrix(43.817443,0,0,43.817443,334.185511,213.982143)"></g><g transform="matrix(43.817443,0,0,43.817443,344.22022,213.982143)"><path d="M0.384,-0.004l0,-0.101c-0.02,0.005 -0.038,0.009 -0.052,0.011c-0.015,0.003 -0.028,0.004 -0.039,0.004c-0.014,0 -0.026,-0.002 -0.036,-0.006c-0.01,-0.004 -0.018,-0.01 -0.025,-0.018c-0.006,-0.008 -0.011,-0.018 -0.014,-0.031c-0.003,-0.012 -0.005,-0.027 -0.005,-0.044l0,-0.489l-0.126,0l0,0.488c0,0.034 0.004,0.063 0.012,0.089c0.008,0.026 0.019,0.047 0.034,0.064c0.015,0.017 0.033,0.03 0.055,0.039c0.022,0.009 0.047,0.013 0.076,0.013c0.017,0 0.036,-0.002 0.056,-0.005c0.02,-0.003 0.041,-0.008 0.063,-0.014Zm0,-0.445l0,-0.102l-0.368,0l-0,0.102l0.368,0Z" style="fill:#fff;fill-rule:nonzero;"/></g><g transform="matrix(43.817443,0,0,43.817443,361.977753,213.982143)"><path d="M0.037,-0.354l0.125,0c0,-0.016 0.003,-0.031 0.008,-0.044c0.005,-0.013 0.013,-0.024 0.024,-0.034c0.011,-0.009 0.024,-0.016 0.041,-0.022c0.016,-0.005 0.036,-0.008 0.058,-0.008c0.022,0 0.042,0.003 0.059,0.009c0.018,0.006 0.032,0.015 0.045,0.027c0.012,0.012 0.022,0.026 0.028,0.042c0.006,0.017 0.01,0.035 0.01,0.056l0,0.117c0,0.012 -0.002,0.024 -0.006,0.035c-0.004,0.011 -0.01,0.021 -0.017,0.03c-0.007,0.009 -0.016,0.018 -0.027,0.025c-0.011,0.007 -0.022,0.014 -0.035,0.019c-0.013,0.005 -0.027,0.009 -0.043,0.012c-0.015,0.003 -0.031,0.004 -0.048,0.004c-0.018,0 -0.034,-0.002 -0.048,-0.005c-0.014,-0.003 -0.026,-0.008 -0.035,-0.014c-0.01,-0.006 -0.017,-0.014 -0.022,-0.023c-0.005,-0.009 -0.007,-0.02 -0.007,-0.031c0,-0.011 0.002,-0.021 0.007,-0.029c0.005,-0.009 0.011,-0.016 0.02,-0.021c0.009,-0.006 0.02,-0.01 0.033,-0.013c0.013,-0.003 0.028,-0.004 0.045,-0.004l0.188,0l0,-0.088l-0.195,0c-0.035,0 -0.066,0.004 -0.093,0.011c-0.027,0.007 -0.051,0.018 -0.07,0.033c-0.019,0.014 -0.034,0.032 -0.044,0.052c-0.01,0.02 -0.015,0.043 -0.015,0.069c0,0.025 0.005,0.047 0.014,0.067c0.009,0.02 0.022,0.038 0.039,0.052c0.017,0.014 0.037,0.026 0.061,0.033c0.024,0.008 0.05,0.012 0.08,0.012c0.019,0 0.037,-0.002 0.054,-0.005c0.017,-0.003 0.033,-0.008 0.048,-0.015c0.015,-0.007 0.029,-0.014 0.041,-0.024c0.013,-0.009 0.024,-0.02 0.034,-0.032c0.01,-0.012 0.019,-0.025 0.026,-0.04c0.007,-0.014 0.013,-0.03 0.017,-0.047l0,0.147l0.125,-0l0,-0.327c0,-0.038 -0.006,-0.071 -0.018,-0.101c-0.012,-0.03 -0.029,-0.055 -0.052,-0.075c-0.023,-0.02 -0.05,-0.036 -0.083,-0.047c-0.033,-0.011 -0.07,-0.016 -0.111,-0.016c-0.04,0 -0.075,0.005 -0.107,0.015c-0.032,0.01 -0.059,0.024 -0.081,0.042c-0.022,0.018 -0.039,0.041 -0.051,0.067c-0.012,0.026 -0.018,0.056 -0.018,0.088Z" style="fill:#fff;fill-rule:nonzero;"/></g><g transform="matrix(43.817443,0,0,43.817443,387.98392,213.982143)"><path d="M0.161,-0.551l-0.125,0l0,0.74l0.126,-0l0,-0.361l-0.001,-0c0.007,0.029 0.016,0.055 0.028,0.078c0.012,0.023 0.026,0.043 0.043,0.059c0.017,0.016 0.036,0.028 0.057,0.037c0.021,0.009 0.044,0.013 0.068,0.013c0.022,0 0.043,-0.003 0.063,-0.01c0.02,-0.007 0.038,-0.016 0.055,-0.028c0.017,-0.012 0.032,-0.027 0.046,-0.044c0.014,-0.017 0.025,-0.037 0.034,-0.058c0.009,-0.022 0.017,-0.045 0.022,-0.07c0.005,-0.025 0.008,-0.052 0.008,-0.081c0,-0.028 -0.003,-0.055 -0.008,-0.081c-0.005,-0.025 -0.012,-0.049 -0.022,-0.07c-0.009,-0.022 -0.021,-0.041 -0.034,-0.058c-0.014,-0.017 -0.029,-0.032 -0.046,-0.044c-0.017,-0.012 -0.035,-0.021 -0.055,-0.028c-0.02,-0.007 -0.041,-0.01 -0.063,-0.01c-0.024,0 -0.047,0.004 -0.068,0.013c-0.021,0.009 -0.04,0.021 -0.057,0.037c-0.017,0.016 -0.031,0.036 -0.043,0.059c-0.012,0.023 -0.021,0.049 -0.028,0.078l0,-0.172Zm0.001,0.276c0,-0.019 0.002,-0.037 0.005,-0.053c0.003,-0.016 0.008,-0.031 0.013,-0.045c0.006,-0.013 0.013,-0.025 0.022,-0.036c0.009,-0.01 0.018,-0.019 0.029,-0.026c0.011,-0.007 0.023,-0.012 0.037,-0.016c0.013,-0.004 0.028,-0.006 0.044,-0.006c0.024,0 0.045,0.004 0.063,0.012c0.018,0.008 0.034,0.019 0.046,0.035c0.012,0.015 0.022,0.034 0.028,0.057c0.006,0.023 0.01,0.049 0.01,0.078c0,0.03 -0.003,0.056 -0.01,0.078c-0.006,0.023 -0.016,0.042 -0.028,0.057c-0.012,0.015 -0.028,0.027 -0.046,0.035c-0.018,0.008 -0.039,0.012 -0.063,0.012c-0.016,-0 -0.031,-0.002 -0.044,-0.006c-0.014,-0.004 -0.026,-0.009 -0.037,-0.016c-0.011,-0.007 -0.021,-0.016 -0.029,-0.026c-0.009,-0.01 -0.016,-0.022 -0.022,-0.036c-0.006,-0.014 -0.01,-0.028 -0.013,-0.045c-0.003,-0.016 -0.005,-0.034 -0.005,-0.053Z" style="fill:#fff;fill-rule:nonzero;"/></g><g transform="matrix(43.817443,0,0,43.817443,414.647349,213.982143)"></g><g transform="matrix(43.817443,0,0,43.817443,424.682058,213.982143)"><path d="M0.024,-0.276c0,0.029 0.003,0.057 0.009,0.082c0.006,0.026 0.015,0.049 0.026,0.071c0.011,0.022 0.025,0.041 0.041,0.058c0.016,0.017 0.034,0.031 0.055,0.043c0.02,0.012 0.042,0.021 0.067,0.027c0.024,0.006 0.05,0.009 0.077,0.009c0.027,0 0.053,-0.003 0.077,-0.009c0.024,-0.006 0.046,-0.015 0.067,-0.027c0.02,-0.012 0.039,-0.026 0.055,-0.043c0.016,-0.017 0.03,-0.036 0.041,-0.058c0.011,-0.021 0.02,-0.045 0.026,-0.071c0.006,-0.026 0.009,-0.053 0.009,-0.082c0,-0.029 -0.003,-0.057 -0.009,-0.082c-0.006,-0.026 -0.015,-0.049 -0.026,-0.071c-0.011,-0.022 -0.025,-0.041 -0.041,-0.058c-0.016,-0.017 -0.034,-0.031 -0.055,-0.043c-0.02,-0.012 -0.043,-0.021 -0.067,-0.027c-0.024,-0.006 -0.05,-0.009 -0.077,-0.009c-0.027,0 -0.053,0.003 -0.077,0.009c-0.024,0.006 -0.046,0.015 -0.067,0.027c-0.02,0.012 -0.039,0.026 -0.055,0.043c-0.016,0.017 -0.03,0.036 -0.041,0.058c-0.011,0.022 -0.02,0.045 -0.026,0.071c-0.006,0.026 -0.009,0.053 -0.009,0.082Zm0.126,0c0,-0.028 0.003,-0.053 0.01,-0.076c0.007,-0.022 0.017,-0.041 0.029,-0.056c0.013,-0.015 0.028,-0.027 0.047,-0.035c0.018,-0.008 0.039,-0.012 0.062,-0.012c0.023,0 0.044,0.004 0.062,0.012c0.018,0.008 0.034,0.02 0.047,0.035c0.013,0.015 0.023,0.034 0.029,0.056c0.007,0.022 0.01,0.047 0.01,0.076c0,0.028 -0.003,0.053 -0.01,0.076c-0.007,0.022 -0.017,0.041 -0.029,0.057c-0.013,0.016 -0.028,0.027 -0.047,0.035c-0.018,0.008 -0.039,0.012 -0.062,0.012c-0.023,-0 -0.044,-0.004 -0.062,-0.012c-0.018,-0.008 -0.034,-0.02 -0.047,-0.035c-0.013,-0.015 -0.023,-0.034 -0.029,-0.056c-0.007,-0.022 -0.01,-0.047 -0.01,-0.076Z" style="fill:#fff;fill-rule:nonzero;"/></g><g transform="matrix(43.817443,0,0,43.817443,450.841586,213.982143)"><path d="M0.162,-0.294c0,-0.017 0.001,-0.033 0.004,-0.048c0.003,-0.015 0.007,-0.028 0.012,-0.04c0.006,-0.012 0.012,-0.023 0.02,-0.032c0.008,-0.009 0.017,-0.017 0.028,-0.023c0.01,-0.006 0.022,-0.011 0.035,-0.014c0.013,-0.003 0.027,-0.005 0.042,-0.005c0.021,0 0.039,0.003 0.054,0.01c0.015,0.006 0.028,0.016 0.039,0.029c0.01,0.013 0.018,0.029 0.023,0.048c0.005,0.019 0.008,0.041 0.008,0.067l0,0.302l0.126,-0l0,-0.314c0,-0.04 -0.004,-0.075 -0.013,-0.107c-0.009,-0.031 -0.021,-0.058 -0.037,-0.079c-0.016,-0.021 -0.036,-0.038 -0.06,-0.049c-0.024,-0.011 -0.051,-0.017 -0.082,-0.017c-0.026,0 -0.049,0.004 -0.071,0.012c-0.022,0.008 -0.041,0.02 -0.058,0.035c-0.017,0.015 -0.031,0.034 -0.043,0.057c-0.012,0.022 -0.021,0.048 -0.027,0.077l0,-0.166l-0.125,0l0,0.551l0.126,-0l0,-0.294Z" style="fill:#fff;fill-rule:nonzero;"/></g><g transform="matrix(43.817443,0,0,43.817443,476.519122,213.982143)"></g><g transform="matrix(43.817443,0,0,43.817443,486.553831,213.982143)"><path d="M0.15,-0.276c0,-0.028 0.003,-0.053 0.01,-0.076c0.007,-0.022 0.017,-0.041 0.029,-0.056c0.013,-0.015 0.028,-0.027 0.047,-0.035c0.018,-0.008 0.039,-0.012 0.062,-0.012c0.02,0 0.038,0.003 0.053,0.009c0.015,0.006 0.029,0.014 0.039,0.025c0.011,0.01 0.02,0.023 0.027,0.037c0.007,0.014 0.012,0.03 0.015,0.046l0.125,0c-0.004,-0.033 -0.013,-0.063 -0.027,-0.091c-0.014,-0.028 -0.032,-0.052 -0.054,-0.072c-0.022,-0.02 -0.048,-0.036 -0.078,-0.048c-0.03,-0.012 -0.064,-0.017 -0.101,-0.017c-0.027,0 -0.053,0.003 -0.077,0.009c-0.024,0.006 -0.046,0.015 -0.067,0.027c-0.02,0.012 -0.039,0.026 -0.055,0.043c-0.016,0.017 -0.03,0.036 -0.041,0.058c-0.011,0.022 -0.02,0.045 -0.026,0.071c-0.006,0.026 -0.009,0.053 -0.009,0.082c0,0.029 0.003,0.057 0.009,0.082c0.006,0.026 0.015,0.049 0.026,0.071c0.011,0.022 0.025,0.041 0.041,0.058c0.016,0.017 0.034,0.031 0.055,0.043c0.02,0.012 0.042,0.021 0.067,0.027c0.024,0.006 0.05,0.009 0.077,0.009c0.037,0 0.071,-0.006 0.101,-0.017c0.03,-0.011 0.056,-0.027 0.078,-0.048c0.022,-0.02 0.04,-0.044 0.054,-0.072c0.014,-0.028 0.023,-0.058 0.027,-0.091l-0.125,0c-0.003,0.016 -0.008,0.032 -0.015,0.046c-0.007,0.014 -0.016,0.027 -0.027,0.037c-0.011,0.011 -0.024,0.019 -0.039,0.025c-0.015,0.006 -0.033,0.009 -0.053,0.009c-0.023,-0 -0.044,-0.004 -0.062,-0.012c-0.018,-0.008 -0.034,-0.02 -0.047,-0.035c-0.013,-0.015 -0.023,-0.034 -0.029,-0.056c-0.007,-0.022 -0.01,-0.047 -0.01,-0.076Z" style="fill:#fff;fill-rule:nonzero;"/></g><g transform="matrix(43.817443,0,0,43.817443,512.067052,213.982143)"><path d="M0.024,-0.276c0,0.029 0.003,0.057 0.009,0.082c0.006,0.026 0.015,0.049 0.026,0.071c0.011,0.022 0.025,0.041 0.041,0.058c0.016,0.017 0.034,0.031 0.055,0.043c0.02,0.012 0.042,0.021 0.067,0.027c0.024,0.006 0.05,0.009 0.077,0.009c0.027,0 0.053,-0.003 0.077,-0.009c0.024,-0.006 0.046,-0.015 0.067,-0.027c0.02,-0.012 0.039,-0.026 0.055,-0.043c0.016,-0.017 0.03,-0.036 0.041,-0.058c0.011,-0.021 0.02,-0.045 0.026,-0.071c0.006,-0.026 0.009,-0.053 0.009,-0.082c0,-0.029 -0.003,-0.057 -0.009,-0.082c-0.006,-0.026 -0.015,-0.049 -0.026,-0.071c-0.011,-0.022 -0.025,-0.041 -0.041,-0.058c-0.016,-0.017 -0.034,-0.031 -0.055,-0.043c-0.02,-0.012 -0.043,-0.021 -0.067,-0.027c-0.024,-0.006 -0.05,-0.009 -0.077,-0.009c-0.027,0 -0.053,0.003 -0.077,0.009c-0.024,0.006 -0.046,0.015 -0.067,0.027c-0.02,0.012 -0.039,0.026 -0.055,0.043c-0.016,0.017 -0.03,0.036 -0.041,0.058c-0.011,0.022 -0.02,0.045 -0.026,0.071c-0.006,0.026 -0.009,0.053 -0.009,0.082Zm0.126,0c0,-0.028 0.003,-0.053 0.01,-0.076c0.007,-0.022 0.017,-0.041 0.029,-0.056c0.013,-0.015 0.028,-0.027 0.047,-0.035c0.018,-0.008 0.039,-0.012 0.062,-0.012c0.023,0 0.044,0.004 0.062,0.012c0.018,0.008 0.034,0.02 0.047,0.035c0.013,0.015 0.023,0.034 0.029,0.056c0.007,0.022 0.01,0.047 0.01,0.076c0,0.028 -0.003,0.053 -0.01,0.076c-0.007,0.022 -0.017,0.041 -0.029,0.057c-0.013,0.016 -0.028,0.027 -0.047,0.035c-0.018,0.008 -0.039,0.012 -0.062,0.012c-0.023,-0 -0.044,-0.004 -0.062,-0.012c-0.018,-0.008 -0.034,-0.02 -0.047,-0.035c-0.013,-0.015 -0.023,-0.034 -0.029,-0.056c-0.007,-0.022 -0.01,-0.047 -0.01,-0.076Z" style="fill:#fff;fill-rule:nonzero;"/></g><g transform="matrix(43.817443,0,0,43.817443,538.22658,213.982143)"><rect x="0.036" y="-0.74" width="0.126" height="0.74" style="fill:#fff;fill-rule:nonzero;"/></g><g transform="matrix(43.817443,0,0,43.817443,546.881039,213.982143)"><path d="M0.024,-0.276c0,0.029 0.003,0.057 0.009,0.082c0.006,0.026 0.015,0.049 0.026,0.071c0.011,0.022 0.025,0.041 0.041,0.058c0.016,0.017 0.034,0.031 0.055,0.043c0.02,0.012 0.042,0.021 0.067,0.027c0.024,0.006 0.05,0.009 0.077,0.009c0.027,0 0.053,-0.003 0.077,-0.009c0.024,-0.006 0.046,-0.015 0.067,-0.027c0.02,-0.012 0.039,-0.026 0.055,-0.043c0.016,-0.017 0.03,-0.036 0.041,-0.058c0.011,-0.021 0.02,-0.045 0.026,-0.071c0.006,-0.026 0.009,-0.053 0.009,-0.082c0,-0.029 -0.003,-0.057 -0.009,-0.082c-0.006,-0.026 -0.015,-0.049 -0.026,-0.071c-0.011,-0.022 -0.025,-0.041 -0.041,-0.058c-0.016,-0.017 -0.034,-0.031 -0.055,-0.043c-0.02,-0.012 -0.043,-0.021 -0.067,-0.027c-0.024,-0.006 -0.05,-0.009 -0.077,-0.009c-0.027,0 -0.053,0.003 -0.077,0.009c-0.024,0.006 -0.046,0.015 -0.067,0.027c-0.02,0.012 -0.039,0.026 -0.055,0.043c-0.016,0.017 -0.03,0.036 -0.041,0.058c-0.011,0.022 -0.02,0.045 -0.026,0.071c-0.006,0.026 -0.009,0.053 -0.009,0.082Zm0.126,0c0,-0.028 0.003,-0.053 0.01,-0.076c0.007,-0.022 0.017,-0.041 0.029,-0.056c0.013,-0.015 0.028,-0.027 0.047,-0.035c0.018,-0.008 0.039,-0.012 0.062,-0.012c0.023,0 0.044,0.004 0.062,0.012c0.018,0.008 0.034,0.02 0.047,0.035c0.013,0.015 0.023,0.034 0.029,0.056c0.007,0.022 0.01,0.047 0.01,0.076c0,0.028 -0.003,0.053 -0.01,0.076c-0.007,0.022 -0.017,0.041 -0.029,0.057c-0.013,0.016 -0.028,0.027 -0.047,0.035c-0.018,0.008 -0.039,0.012 -0.062,0.012c-0.023,-0 -0.044,-0.004 -0.062,-0.012c-0.018,-0.008 -0.034,-0.02 -0.047,-0.035c-0.013,-0.015 -0.023,-0.034 -0.029,-0.056c-0.007,-0.022 -0.01,-0.047 -0.01,-0.076Z" style="fill:#fff;fill-rule:nonzero;"/></g><g transform="matrix(43.817443,0,0,43.817443,573.040567,213.982143)"><path d="M0.162,-0.263c0,-0.029 0.003,-0.054 0.009,-0.076c0.006,-0.021 0.016,-0.039 0.031,-0.053c0.014,-0.014 0.033,-0.024 0.057,-0.031c0.024,-0.007 0.054,-0.01 0.089,-0.01l0.041,0l0,-0.119l-0.029,0c-0.028,0 -0.054,0.004 -0.076,0.013c-0.022,0.009 -0.042,0.021 -0.058,0.037c-0.016,0.016 -0.03,0.036 -0.041,0.059c-0.011,0.023 -0.019,0.049 -0.025,0.078l0,-0.187l-0.125,0l0,0.551l0.126,-0l0,-0.263Z" style="fill:#fff;fill-rule:nonzero;"/></g><g transform="matrix(43.817443,0,0,43.817443,591.082399,213.982143)"></g><g transform="matrix(43.817443,0,0,43.817443,601.117108,213.982143)"></g><g transform="matrix(43.817443,0,0,43.817443,1260.201175,213.982143)"><path d="M0.15,-0.276c0,-0.028 0.003,-0.053 0.01,-0.076c0.007,-0.022 0.017,-0.041 0.029,-0.056c0.013,-0.015 0.028,-0.027 0.047,-0.035c0.018,-0.008 0.039,-0.012 0.062,-0.012c0.02,0 0.038,0.003 0.053,0.009c0.015,0.006 0.029,0.014 0.039,0.025c0.011,0.01 0.02,0.023 0.027,0.037c0.007,0.014 0.012,0.03 0.015,0.046l0.125,0c-0.004,-0.033 -0.013,-0.063 -0.027,-0.091c-0.014,-0.028 -0.032,-0.052 -0.054,-0.072c-0.022,-0.02 -0.048,-0.036 -0.078,-0.048c-0.03,-0.012 -0.064,-0.017 -0.101,-0.017c-0.027,0 -0.053,0.003 -0.077,0.009c-0.024,0.006 -0.046,0.015 -0.067,0.027c-0.02,0.012 -0.039,0.026 -0.055,0.043c-0.016,0.017 -0.03,0.036 -0.041,0.058c-0.011,0.022 -0.02,0.045 -0.026,0.071c-0.006,0.026 -0.009,0.053 -0.009,0.082c0,0.029 0.003,0.057 0.009,0.082c0.006,0.026 0.015,0.049 0.026,0.071c0.011,0.022 0.025,0.041 0.041,0.058c0.016,0.017 0.034,0.031 0.055,0.043c0.02,0.012 0.042,0.021 0.067,0.027c0.024,0.006 0.05,0.009 0.077,0.009c0.037,0 0.071,-0.006 0.101,-0.017c0.03,-0.011 0.056,-0.027 0.078,-0.048c0.022,-0.02 0.04,-0.044 0.054,-0.072c0.014,-0.028 0.023,-0.058 0.027,-0.091l-0.125,0c-0.003,0.016 -0.008,0.032 -0.015,0.046c-0.007,0.014 -0.016,0.027 -0.027,0.037c-0.011,0.011 -0.024,0.019 -0.039,0.025c-0.015,0.006 -0.033,0.009 -0.053,0.009c-0.023,-0 -0.044,-0.004 -0.062,-0.012c-0.018,-0.008 -0.034,-0.02 -0.047,-0.035c-0.013,-0.015 -0.023,-0.034 -0.029,-0.056c-0.007,-0.022 -0.01,-0.047 -0.01,-0.076Z" style="fill:#fff;fill-rule:nonzero;"/></g><g transform="matrix(43.817443,0,0,43.817443,1285.714396,213.982143)"><path d="M0.024,-0.276c0,0.029 0.003,0.057 0.009,0.082c0.006,0.026 0.015,0.049 0.026,0.071c0.011,0.022 0.025,0.041 0.041,0.058c0.016,0.017 0.034,0.031 0.055,0.043c0.02,0.012 0.042,0.021 0.067,0.027c0.024,0.006 0.05,0.009 0.077,0.009c0.027,0 0.053,-0.003 0.077,-0.009c0.024,-0.006 0.046,-0.015 0.067,-0.027c0.02,-0.012 0.039,-0.026 0.055,-0.043c0.016,-0.017 0.03,-0.036 0.041,-0.058c0.011,-0.021 0.02,-0.045 0.026,-0.071c0.006,-0.026 0.009,-0.053 0.009,-0.082c0,-0.029 -0.003,-0.057 -0.009,-0.082c-0.006,-0.026 -0.015,-0.049 -0.026,-0.071c-0.011,-0.022 -0.025,-0.041 -0.041,-0.058c-0.016,-0.017 -0.034,-0.031 -0.055,-0.043c-0.02,-0.012 -0.043,-0.021 -0.067,-0.027c-0.024,-0.006 -0.05,-0.009 -0.077,-0.009c-0.027,0 -0.053,0.003 -0.077,0.009c-0.024,0.006 -0.046,0.015 -0.067,0.027c-0.02,0.012 -0.039,0.026 -0.055,0.043c-0.016,0.017 -0.03,0.036 -0.041,0.058c-0.011,0.022 -0.02,0.045 -0.026,0.071c-0.006,0.026 -0.009,0.053 -0.009,0.082Zm0.126,0c0,-0.028 0.003,-0.053 0.01,-0.076c0.007,-0.022 0.017,-0.041 0.029,-0.056c0.013,-0.015 0.028,-0.027 0.047,-0.035c0.018,-0.008 0.039,-0.012 0.062,-0.012c0.023,0 0.044,0.004 0.062,0.012c0.018,0.008 0.034,0.02 0.047,0.035c0.013,0.015 0.023,0.034 0.029,0.056c0.007,0.022 0.01,0.047 0.01,0.076c0,0.028 -0.003,0.053 -0.01,0.076c-0.007,0.022 -0.017,0.041 -0.029,0.057c-0.013,0.016 -0.028,0.027 -0.047,0.035c-0.018,0.008 -0.039,0.012 -0.062,0.012c-0.023,-0 -0.044,-0.004 -0.062,-0.012c-0.018,-0.008 -0.034,-0.02 -0.047,-0.035c-0.013,-0.015 -0.023,-0.034 -0.029,-0.056c-0.007,-0.022 -0.01,-0.047 -0.01,-0.076Z" style="fill:#fff;fill-rule:nonzero;"/></g><g transform="matrix(43.817443,0,0,43.817443,1311.873924,213.982143)"><rect x="0.036" y="-0.74" width="0.126" height="0.74" style="fill:#fff;fill-rule:nonzero;"/></g><g transform="matrix(43.817443,0,0,43.817443,1320.528383,213.982143)"><path d="M0.024,-0.276c0,0.029 0.003,0.057 0.009,0.082c0.006,0.026 0.015,0.049 0.026,0.071c0.011,0.022 0.025,0.041 0.041,0.058c0.016,0.017 0.034,0.031 0.055,0.043c0.02,0.012 0.042,0.021 0.067,0.027c0.024,0.006 0.05,0.009 0.077,0.009c0.027,0 0.053,-0.003 0.077,-0.009c0.024,-0.006 0.046,-0.015 0.067,-0.027c0.02,-0.012 0.039,-0.026 0.055,-0.043c0.016,-0.017 0.03,-0.036 0.041,-0.058c0.011,-0.021 0.02,-0.045 0.026,-0.071c0.006,-0.026 0.009,-0.053 0.009,-0.082c0,-0.029 -0.003,-0.057 -0.009,-0.082c-0.006,-0.026 -0.015,-0.049 -0.026,-0.071c-0.011,-0.022 -0.025,-0.041 -0.041,-0.058c-0.016,-0.017 -0.034,-0.031 -0.055,-0.043c-0.02,-0.012 -0.043,-0.021 -0.067,-0.027c-0.024,-0.006 -0.05,-0.009 -0.077,-0.009c-0.027,0 -0.053,0.003 -0.077,0.009c-0.024,0.006 -0.046,0.015 -0.067,0.027c-0.02,0.012 -0.039,0.026 -0.055,0.043c-0.016,0.017 -0.03,0.036 -0.041,0.058c-0.011,0.022 -0.02,0.045 -0.026,0.071c-0.006,0.026 -0.009,0.053 -0.009,0.082Zm0.126,0c0,-0.028 0.003,-0.053 0.01,-0.076c0.007,-0.022 0.017,-0.041 0.029,-0.056c0.013,-0.015 0.028,-0.027 0.047,-0.035c0.018,-0.008 0.039,-0.012 0.062,-0.012c0.023,0 0.044,0.004 0.062,0.012c0.018,0.008 0.034,0.02 0.047,0.035c0.013,0.015 0.023,0.034 0.029,0.056c0.007,0.022 0.01,0.047 0.01,0.076c0,0.028 -0.003,0.053 -0.01,0.076c-0.007,0.022 -0.017,0.041 -0.029,0.057c-0.013,0.016 -0.028,0.027 -0.047,0.035c-0.018,0.008 -0.039,0.012 -0.062,0.012c-0.023,-0 -0.044,-0.004 -0.062,-0.012c-0.018,-0.008 -0.034,-0.02 -0.047,-0.035c-0.013,-0.015 -0.023,-0.034 -0.029,-0.056c-0.007,-0.022 -0.01,-0.047 -0.01,-0.076Z" style="fill:#fff;fill-rule:nonzero;"/></g><g transform="matrix(43.817443,0,0,43.817443,1346.687911,213.982143)"><path d="M0.162,-0.263c0,-0.029 0.003,-0.054 0.009,-0.076c0.006,-0.021 0.016,-0.039 0.031,-0.053c0.014,-0.014 0.033,-0.024 0.057,-0.031c0.024,-0.007 0.054,-0.01 0.089,-0.01l0.041,0l0,-0.119l-0.029,0c-0.028,0 -0.054,0.004 -0.076,0.013c-0.022,0.009 -0.042,0.021 -0.058,0.037c-0.016,0.016 -0.03,0.036 -0.041,0.059c-0.011,0.023 -0.019,0.049 -0.025,0.078l0,-0.187l-0.125,0l0,0.551l0.126,-0l0,-0.263Z" style="fill:#fff;fill-rule:nonzero;"/></g><g transform="matrix(43.817443,0,0,43.817443,1364.730258,213.982143)"></g><g transform="matrix(43.817443,0,0,43.817443,1374.764967,213.982143)"><path d="M0.037,-0.354l0.125,0c0,-0.016 0.003,-0.031 0.008,-0.044c0.005,-0.013 0.013,-0.024 0.024,-0.034c0.011,-0.009 0.024,-0.016 0.041,-0.022c0.016,-0.005 0.036,-0.008 0.058,-0.008c0.022,0 0.042,0.003 0.059,0.009c0.018,0.006 0.032,0.015 0.045,0.027c0.012,0.012 0.022,0.026 0.028,0.042c0.006,0.017 0.01,0.035 0.01,0.056l0,0.117c0,0.012 -0.002,0.024 -0.006,0.035c-0.004,0.011 -0.01,0.021 -0.017,0.03c-0.007,0.009 -0.016,0.018 -0.027,0.025c-0.011,0.007 -0.022,0.014 -0.035,0.019c-0.013,0.005 -0.027,0.009 -0.043,0.012c-0.015,0.003 -0.031,0.004 -0.048,0.004c-0.018,0 -0.034,-0.002 -0.048,-0.005c-0.014,-0.003 -0.026,-0.008 -0.035,-0.014c-0.01,-0.006 -0.017,-0.014 -0.022,-0.023c-0.005,-0.009 -0.007,-0.02 -0.007,-0.031c0,-0.011 0.002,-0.021 0.007,-0.029c0.005,-0.009 0.011,-0.016 0.02,-0.021c0.009,-0.006 0.02,-0.01 0.033,-0.013c0.013,-0.003 0.028,-0.004 0.045,-0.004l0.188,0l0,-0.088l-0.195,0c-0.035,0 -0.066,0.004 -0.093,0.011c-0.027,0.007 -0.051,0.018 -0.07,0.033c-0.019,0.014 -0.034,0.032 -0.044,0.052c-0.01,0.02 -0.015,0.043 -0.015,0.069c0,0.025 0.005,0.047 0.014,0.067c0.009,0.02 0.022,0.038 0.039,0.052c0.017,0.014 0.037,0.026 0.061,0.033c0.024,0.008 0.05,0.012 0.08,0.012c0.019,0 0.037,-0.002 0.054,-0.005c0.017,-0.003 0.033,-0.008 0.048,-0.015c0.015,-0.007 0.029,-0.014 0.041,-0.024c0.013,-0.009 0.024,-0.02 0.034,-0.032c0.01,-0.012 0.019,-0.025 0.026,-0.04c0.007,-0.014 0.013,-0.03 0.017,-0.047l0,0.147l0.125,-0l0,-0.327c0,-0.038 -0.006,-0.071 -0.018,-0.101c-0.012,-0.03 -0.029,-0.055 -0.052,-0.075c-0.023,-0.02 -0.05,-0.036 -0.083,-0.047c-0.033,-0.011 -0.07,-0.016 -0.111,-0.016c-0.04,0 -0.075,0.005 -0.107,0.015c-0.032,0.01 -0.059,0.024 -0.081,0.042c-0.022,0.018 -0.039,0.041 -0.051,0.067c-0.012,0.026 -0.018,0.056 -0.018,0.088Z" style="fill:#fff;fill-rule:nonzero;"/></g><g transform="matrix(43.817443,0,0,43.817443,1400.771134,213.982143)"><rect x="0.038" y="-0.148" width="0.141" height="0.148" style="fill:#fff;fill-rule:nonzero;"/></g><g transform="matrix(43.817443,0,0,43.817443,1410.323851,213.982143)"><path d="M0.161,-0.74l-0.125,0l0,0.74l0.126,-0l0,-0.172l-0.001,-0.001c0.007,0.029 0.016,0.055 0.028,0.078c0.012,0.023 0.026,0.043 0.043,0.059c0.017,0.016 0.036,0.028 0.057,0.037c0.021,0.009 0.044,0.013 0.068,0.013c0.022,0 0.043,-0.003 0.063,-0.01c0.02,-0.007 0.038,-0.016 0.055,-0.028c0.017,-0.012 0.032,-0.027 0.046,-0.044c0.014,-0.017 0.025,-0.037 0.034,-0.058c0.009,-0.022 0.017,-0.045 0.022,-0.07c0.005,-0.025 0.008,-0.052 0.008,-0.081c0,-0.028 -0.003,-0.055 -0.008,-0.081c-0.005,-0.025 -0.012,-0.049 -0.022,-0.07c-0.009,-0.022 -0.021,-0.041 -0.034,-0.058c-0.014,-0.017 -0.029,-0.032 -0.046,-0.044c-0.017,-0.012 -0.035,-0.021 -0.055,-0.028c-0.02,-0.007 -0.041,-0.01 -0.063,-0.01c-0.024,0 -0.047,0.004 -0.068,0.013c-0.021,0.009 -0.04,0.021 -0.057,0.037c-0.017,0.016 -0.031,0.036 -0.043,0.059c-0.012,0.023 -0.021,0.049 -0.028,0.078l0,-0.36Zm0.001,0.464c0,-0.019 0.002,-0.037 0.005,-0.053c0.003,-0.016 0.008,-0.031 0.013,-0.045c0.006,-0.013 0.013,-0.025 0.022,-0.036c0.009,-0.01 0.018,-0.019 0.029,-0.026c0.011,-0.007 0.023,-0.012 0.037,-0.016c0.013,-0.004 0.028,-0.006 0.044,-0.006c0.024,0 0.045,0.004 0.063,0.012c0.018,0.008 0.034,0.019 0.046,0.035c0.012,0.015 0.022,0.034 0.028,0.057c0.006,0.023 0.01,0.049 0.01,0.078c0,0.03 -0.003,0.056 -0.01,0.078c-0.006,0.023 -0.016,0.042 -0.028,0.057c-0.012,0.015 -0.028,0.027 -0.046,0.035c-0.018,0.008 -0.039,0.012 -0.063,0.012c-0.016,-0 -0.031,-0.002 -0.044,-0.006c-0.014,-0.004 -0.026,-0.009 -0.037,-0.016c-0.011,-0.007 -0.021,-0.016 -0.029,-0.026c-0.009,-0.01 -0.016,-0.022 -0.022,-0.036c-0.006,-0.014 -0.01,-0.028 -0.013,-0.045c-0.003,-0.016 -0.005,-0.034 -0.005,-0.053Z" style="fill:#fff;fill-rule:nonzero;"/></g><g transform="matrix(43.817443,0,0,43.817443,1436.987279,213.982143)"><rect x="0.038" y="-0.148" width="0.141" height="0.148" style="fill:#fff;fill-rule:nonzero;"/></g><g transform="matrix(43.817443,0,0,43.817443,1446.539996,213.982143)"><path d="M0.15,-0.276c0,-0.028 0.003,-0.053 0.01,-0.076c0.007,-0.022 0.017,-0.041 0.029,-0.056c0.013,-0.015 0.028,-0.027 0.047,-0.035c0.018,-0.008 0.039,-0.012 0.062,-0.012c0.02,0 0.038,0.003 0.053,0.009c0.015,0.006 0.029,0.014 0.039,0.025c0.011,0.01 0.02,0.023 0.027,0.037c0.007,0.014 0.012,0.03 0.015,0.046l0.125,0c-0.004,-0.033 -0.013,-0.063 -0.027,-0.091c-0.014,-0.028 -0.032,-0.052 -0.054,-0.072c-0.022,-0.02 -0.048,-0.036 -0.078,-0.048c-0.03,-0.012 -0.064,-0.017 -0.101,-0.017c-0.027,0 -0.053,0.003 -0.077,0.009c-0.024,0.006 -0.046,0.015 -0.067,0.027c-0.02,0.012 -0.039,0.026 -0.055,0.043c-0.016,0.017 -0.03,0.036 -0.041,0.058c-0.011,0.022 -0.02,0.045 -0.026,0.071c-0.006,0.026 -0.009,0.053 -0.009,0.082c0,0.029 0.003,0.057 0.009,0.082c0.006,0.026 0.015,0.049 0.026,0.071c0.011,0.022 0.025,0.041 0.041,0.058c0.016,0.017 0.034,0.031 0.055,0.043c0.02,0.012 0.042,0.021 0.067,0.027c0.024,0.006 0.05,0.009 0.077,0.009c0.037,0 0.071,-0.006 0.101,-0.017c0.03,-0.011 0.056,-0.027 0.078,-0.048c0.022,-0.02 0.04,-0.044 0.054,-0.072c0.014,-0.028 0.023,-0.058 0.027,-0.091l-0.125,0c-0.003,0.016 -0.008,0.032 -0.015,0.046c-0.007,0.014 -0.016,0.027 -0.027,0.037c-0.011,0.011 -0.024,0.019 -0.039,0.025c-0.015,0.006 -0.033,0.009 -0.053,0.009c-0.023,-0 -0.044,-0.004 -0.062,-0.012c-0.018,-0.008 -0.034,-0.02 -0.047,-0.035c-0.013,-0.015 -0.023,-0.034 -0.029,-0.056c-0.007,-0.022 -0.01,-0.047 -0.01,-0.076Z" style="fill:#fff;fill-rule:nonzero;"/></g><g transform="matrix(43.817443,0,0,43.817443,1472.052703,213.982143)"></g><g transform="matrix(43.817443,0,0,43.817443,2159.899903,213.982143)"><path d="M0.15,-0.276c0,-0.028 0.003,-0.053 0.01,-0.076c0.007,-0.022 0.017,-0.041 0.029,-0.056c0.013,-0.015 0.028,-0.027 0.047,-0.035c0.018,-0.008 0.039,-0.012 0.062,-0.012c0.02,0 0.038,0.003 0.053,0.009c0.015,0.006 0.029,0.014 0.039,0.025c0.011,0.01 0.02,0.023 0.027,0.037c0.007,0.014 0.012,0.03 0.015,0.046l0.125,0c-0.004,-0.033 -0.013,-0.063 -0.027,-0.091c-0.014,-0.028 -0.032,-0.052 -0.054,-0.072c-0.022,-0.02 -0.048,-0.036 -0.078,-0.048c-0.03,-0.012 -0.064,-0.017 -0.101,-0.017c-0.027,0 -0.053,0.003 -0.077,0.009c-0.024,0.006 -0.046,0.015 -0.067,0.027c-0.02,0.012 -0.039,0.026 -0.055,0.043c-0.016,0.017 -0.03,0.036 -0.041,0.058c-0.011,0.022 -0.02,0.045 -0.026,0.071c-0.006,0.026 -0.009,0.053 -0.009,0.082c0,0.029 0.003,0.057 0.009,0.082c0.006,0.026 0.015,0.049 0.026,0.071c0.011,0.022 0.025,0.041 0.041,0.058c0.016,0.017 0.034,0.031 0.055,0.043c0.02,0.012 0.042,0.021 0.067,0.027c0.024,0.006 0.05,0.009 0.077,0.009c0.037,0 0.071,-0.006 0.101,-0.017c0.03,-0.011 0.056,-0.027 0.078,-0.048c0.022,-0.02 0.04,-0.044 0.054,-0.072c0.014,-0.028 0.023,-0.058 0.027,-0.091l-0.125,0c-0.003,0.016 -0.008,0.032 -0.015,0.046c-0.007,0.014 -0.016,0.027 -0.027,0.037c-0.011,0.011 -0.024,0.019 -0.039,0.025c-0.015,0.006 -0.033,0.009 -0.053,0.009c-0.023,-0 -0.044,-0.004 -0.062,-0.012c-0.018,-0.008 -0.034,-0.02 -0.047,-0.035c-0.013,-0.015 -0.023,-0.034 -0.029,-0.056c-0.007,-0.022 -0.01,-0.047 -0.01,-0.076Z" style="fill:#fff;fill-rule:nonzero;"/></g><g transform="matrix(43.817443,0,0,43.817443,2185.413124,213.982143)"><path d="M0.024,-0.276c0,0.029 0.003,0.057 0.009,0.082c0.006,0.026 0.015,0.049 0.026,0.071c0.011,0.022 0.025,0.041 0.041,0.058c0.016,0.017 0.034,0.031 0.055,0.043c0.02,0.012 0.042,0.021 0.067,0.027c0.024,0.006 0.05,0.009 0.077,0.009c0.027,0 0.053,-0.003 0.077,-0.009c0.024,-0.006 0.046,-0.015 0.067,-0.027c0.02,-0.012 0.039,-0.026 0.055,-0.043c0.016,-0.017 0.03,-0.036 0.041,-0.058c0.011,-0.021 0.02,-0.045 0.026,-0.071c0.006,-0.026 0.009,-0.053 0.009,-0.082c0,-0.029 -0.003,-0.057 -0.009,-0.082c-0.006,-0.026 -0.015,-0.049 -0.026,-0.071c-0.011,-0.022 -0.025,-0.041 -0.041,-0.058c-0.016,-0.017 -0.034,-0.031 -0.055,-0.043c-0.02,-0.012 -0.043,-0.021 -0.067,-0.027c-0.024,-0.006 -0.05,-0.009 -0.077,-0.009c-0.027,0 -0.053,0.003 -0.077,0.009c-0.024,0.006 -0.046,0.015 -0.067,0.027c-0.02,0.012 -0.039,0.026 -0.055,0.043c-0.016,0.017 -0.03,0.036 -0.041,0.058c-0.011,0.022 -0.02,0.045 -0.026,0.071c-0.006,0.026 -0.009,0.053 -0.009,0.082Zm0.126,0c0,-0.028 0.003,-0.053 0.01,-0.076c0.007,-0.022 0.017,-0.041 0.029,-0.056c0.013,-0.015 0.028,-0.027 0.047,-0.035c0.018,-0.008 0.039,-0.012 0.062,-0.012c0.023,0 0.044,0.004 0.062,0.012c0.018,0.008 0.034,0.02 0.047,0.035c0.013,0.015 0.023,0.034 0.029,0.056c0.007,0.022 0.01,0.047 0.01,0.076c0,0.028 -0.003,0.053 -0.01,0.076c-0.007,0.022 -0.017,0.041 -0.029,0.057c-0.013,0.016 -0.028,0.027 -0.047,0.035c-0.018,0.008 -0.039,0.012 -0.062,0.012c-0.023,-0 -0.044,-0.004 -0.062,-0.012c-0.018,-0.008 -0.034,-0.02 -0.047,-0.035c-0.013,-0.015 -0.023,-0.034 -0.029,-0.056c-0.007,-0.022 -0.01,-0.047 -0.01,-0.076Z" style="fill:#fff;fill-rule:nonzero;"/></g><g transform="matrix(43.817443,0,0,43.817443,2211.572652,213.982143)"><path d="M0.424,-0.258c-0,0.017 -0.001,0.033 -0.004,0.048c-0.003,0.015 -0.007,0.028 -0.013,0.04c-0.006,0.012 -0.012,0.023 -0.02,0.032c-0.008,0.009 -0.017,0.017 -0.028,0.023c-0.011,0.006 -0.022,0.011 -0.035,0.014c-0.013,0.003 -0.026,0.005 -0.041,0.005c-0.021,-0 -0.039,-0.003 -0.054,-0.01c-0.015,-0.006 -0.028,-0.016 -0.039,-0.029c-0.01,-0.013 -0.018,-0.029 -0.023,-0.048c-0.005,-0.019 -0.008,-0.041 -0.008,-0.067l0,-0.302l-0.126,0l0,0.314c0,0.04 0.004,0.075 0.013,0.107c0.009,0.031 0.021,0.058 0.037,0.079c0.016,0.022 0.036,0.038 0.06,0.049c0.024,0.011 0.051,0.017 0.082,0.017c0.026,0 0.049,-0.004 0.071,-0.012c0.022,-0.008 0.041,-0.02 0.058,-0.035c0.017,-0.015 0.031,-0.034 0.043,-0.057c0.012,-0.022 0.021,-0.048 0.027,-0.077l0,0.166l0.125,-0l0,-0.551l-0.126,0l0,0.294Z" style="fill:#fff;fill-rule:nonzero;"/></g><g transform="matrix(43.817443,0,0,43.817443,2237.250188,213.982143)"><path d="M0.162,-0.294c0,-0.017 0.001,-0.033 0.004,-0.048c0.003,-0.015 0.007,-0.028 0.012,-0.04c0.006,-0.012 0.012,-0.023 0.02,-0.032c0.008,-0.009 0.017,-0.017 0.028,-0.023c0.01,-0.006 0.022,-0.011 0.035,-0.014c0.013,-0.003 0.027,-0.005 0.042,-0.005c0.021,0 0.039,0.003 0.054,0.01c0.015,0.006 0.028,0.016 0.039,0.029c0.01,0.013 0.018,0.029 0.023,0.048c0.005,0.019 0.008,0.041 0.008,0.067l0,0.302l0.126,-0l0,-0.314c0,-0.04 -0.004,-0.075 -0.013,-0.107c-0.009,-0.031 -0.021,-0.058 -0.037,-0.079c-0.016,-0.021 -0.036,-0.038 -0.06,-0.049c-0.024,-0.011 -0.051,-0.017 -0.082,-0.017c-0.026,0 -0.049,0.004 -0.071,0.012c-0.022,0.008 -0.041,0.02 -0.058,0.035c-0.017,0.015 -0.031,0.034 -0.043,0.057c-0.012,0.022 -0.021,0.048 -0.027,0.077l0,-0.166l-0.125,0l0,0.551l0.126,-0l0,-0.294Z" style="fill:#fff;fill-rule:nonzero;"/></g><g transform="matrix(43.817443,0,0,43.817443,2262.664819,213.982143)"><path d="M0.384,-0.004l0,-0.101c-0.02,0.005 -0.038,0.009 -0.052,0.011c-0.015,0.003 -0.028,0.004 -0.039,0.004c-0.014,0 -0.026,-0.002 -0.036,-0.006c-0.01,-0.004 -0.018,-0.01 -0.025,-0.018c-0.006,-0.008 -0.011,-0.018 -0.014,-0.031c-0.003,-0.012 -0.005,-0.027 -0.005,-0.044l0,-0.489l-0.126,0l0,0.488c0,0.034 0.004,0.063 0.012,0.089c0.008,0.026 0.019,0.047 0.034,0.064c0.015,0.017 0.033,0.03 0.055,0.039c0.022,0.009 0.047,0.013 0.076,0.013c0.017,0 0.036,-0.002 0.056,-0.005c0.02,-0.003 0.041,-0.008 0.063,-0.014Zm0,-0.445l0,-0.102l-0.368,0l-0,0.102l0.368,0Z" style="fill:#fff;fill-rule:nonzero;"/></g><g transform="matrix(43.817443,0,0,43.817443,2280.684743,213.982143)"></g></svg>